<svg width="120" height="50" viewBox="0 0 120 50" fill="none" xmlns="http://www.w3.org/2000/svg">
<g clip-path="url(#clip0_401_1787)">
<path d="M34.0481 27.9385C33.9729 27.3493 33.734 26.7933 33.3588 26.334C32.9836 25.8747 32.4873 25.5306 31.9265 25.3412L31.467 25.1832C31.1398 25.0856 30.8167 24.9726 30.5069 24.8477L19.509 21.003C19.3796 20.9588 19.2516 20.9075 19.13 20.8521C18.0474 20.367 17.2943 19.5232 17.009 18.4773C16.702 17.3506 16.9649 16.118 17.7495 15.0067L28.3398 0L1.36983 18.9364C0.885517 19.2763 0.50415 19.7439 0.26779 20.2876C0.0314305 20.8314 -0.0507392 21.43 0.0303442 22.0176C0.111428 22.6053 0.352614 23.159 0.727301 23.6177C1.10199 24.0765 1.59562 24.4224 2.15374 24.6174L2.28941 24.6652C2.85823 24.8153 3.41447 25.0098 3.95304 25.2471L14.6356 28.9802C14.7621 29.0237 14.8894 29.0742 15.0104 29.129C16.0929 29.6127 16.8481 30.4557 17.1349 31.5031C17.4433 32.6304 17.1803 33.8645 16.395 34.9771L5.7922 49.9993L32.7153 31.0201C33.2031 30.6837 33.5867 30.2163 33.8224 29.6713C34.0581 29.1264 34.1363 28.5259 34.0481 27.9385Z" fill="#0FAE79"/>
<path d="M26.132 6.82106C27.1642 4.74042 28.0635 2.49481 29.4062 0.592468L18.9768 15.3732C18.367 16.2373 18.1565 17.1723 18.3838 18.007C18.5894 18.7602 19.1467 19.3744 19.9558 19.7373C20.0509 19.7801 20.1509 19.8202 20.253 19.856L28.6083 22.7769C27.2146 21.7421 26.0823 20.3934 25.3025 18.8393C24.5227 17.2851 24.1173 15.569 24.1188 13.8288C24.1188 11.7671 24.7684 9.78548 25.6118 7.91964C25.7791 7.5476 25.9526 7.1814 26.132 6.82106Z" fill="#0FAE79"/>
<path d="M8.00272 43.0393C6.99642 45.1543 6.06915 47.4336 4.716 49.3521L15.1685 34.5405C15.7789 33.6757 15.9887 32.7392 15.7608 31.9046C15.5545 31.15 14.995 30.5358 14.1859 30.1742C14.0901 30.1307 13.9929 30.0921 13.8936 30.0584L5.56216 27.1487C6.94042 28.1847 8.05904 29.529 8.82916 31.0748C9.59927 32.6207 9.99966 34.3256 9.99852 36.0539C9.99852 37.9493 9.43908 39.7611 8.70481 41.4921C8.48174 42.0151 8.24467 42.531 8.00272 43.0393Z" fill="#0FAE79"/>
<path d="M38.9083 31.4139L40.5817 30.6361C40.7402 31.2141 41.0309 31.6547 41.4537 31.9579C41.8766 32.2612 42.4171 32.4128 43.0754 32.4128C43.6978 32.4128 44.1924 32.239 44.5593 31.8913C44.9262 31.5435 45.1097 31.0779 45.1097 30.4943C45.1097 29.7339 44.4803 29.0553 43.2216 28.4586C43.0453 28.3702 42.9104 28.3054 42.8167 28.2642C41.3957 27.5683 40.4488 26.9391 39.9761 26.3766C39.5034 25.8141 39.2672 25.1259 39.2677 24.3121C39.2677 23.2577 39.6243 22.4032 40.3376 21.7485C41.0509 21.0938 41.9859 20.7662 43.1425 20.7657C44.0936 20.7657 44.8892 20.9499 45.5292 21.3182C46.1511 21.6657 46.624 22.2306 46.8579 22.9053L45.2202 23.754C44.9614 23.3478 44.6782 23.0502 44.3705 22.8611C44.0497 22.6698 43.682 22.5725 43.309 22.5803C42.7453 22.5803 42.2975 22.7277 41.9656 23.0226C41.6337 23.3174 41.4679 23.7121 41.4684 24.2068C41.4684 24.9846 42.1964 25.7099 43.6523 26.3829C43.7642 26.4362 43.8523 26.4777 43.9167 26.5071C45.1908 27.0959 46.0656 27.6719 46.5411 28.2354C47.0167 28.7988 47.2544 29.5008 47.2544 30.3413C47.2544 31.5679 46.8698 32.5418 46.1006 33.2629C45.3313 33.9841 44.2922 34.3451 42.9831 34.3461C41.8852 34.3461 40.9854 34.0926 40.2838 33.5858C39.5822 33.079 39.1236 32.355 38.9083 31.4139Z" fill="#666666"/>
<path d="M50.0293 25.6219V30.3427C50.0293 31.1565 50.1966 31.7401 50.5314 32.0934C50.8661 32.4467 51.4092 32.6234 52.1607 32.6234C52.9118 32.6234 53.4549 32.4467 53.7901 32.0934C54.1253 31.7401 54.2924 31.1565 54.2915 30.3427V25.6219H56.2027V29.7685C56.2027 31.3713 55.8829 32.5352 55.2433 33.2601C54.6036 33.985 53.5819 34.3475 52.1782 34.3475C50.7516 34.3475 49.7183 33.988 49.0782 33.2692C48.4381 32.5504 48.1183 31.3835 48.1188 29.7685V25.6219H50.0293Z" fill="#666666"/>
<path d="M57.2712 37.9472V25.6219H59.1824V26.9922C59.3939 26.4752 59.7702 26.0432 60.2524 25.7637C60.7423 25.4745 61.3279 25.3302 62.009 25.3306C63.119 25.3306 64.0188 25.7415 64.7083 26.5633C65.3978 27.3851 65.7428 28.4652 65.7433 29.8036C65.7433 31.2127 65.4043 32.322 64.7265 33.1316C64.0486 33.9412 63.1195 34.3465 61.9391 34.3474C61.3958 34.3659 60.857 34.2439 60.3743 33.9931C59.8916 33.7423 59.4812 33.3712 59.1824 32.9154V37.9457L57.2712 37.9472ZM59.1209 29.7874C59.1209 30.6537 59.3365 31.3461 59.7677 31.8646C60.199 32.3831 60.768 32.6421 61.4747 32.6417C62.1973 32.6417 62.7568 32.3999 63.1531 31.9165C63.5493 31.4331 63.7475 30.7466 63.7475 29.8569C63.7475 28.9725 63.5405 28.2812 63.1265 27.7833C62.7125 27.2854 62.1444 27.0364 61.4223 27.0364C60.7006 27.0364 60.1372 27.2781 59.7321 27.7616C59.327 28.245 59.1242 28.9203 59.1237 29.7874H59.1209Z" fill="#666666"/>
<path d="M75.388 30.097H68.7125C68.7591 30.8804 68.9911 31.4918 69.4083 31.9313C69.8256 32.3707 70.3803 32.5902 71.0726 32.5897C71.6894 32.5897 72.2022 32.4601 72.6111 32.2008C73.02 31.9416 73.378 31.5232 73.6852 30.9457L75.2936 31.847C74.8237 32.6894 74.2423 33.3172 73.5496 33.7304C72.8568 34.1436 72.0461 34.3498 71.1174 34.3489C69.7789 34.3489 68.7132 33.9394 67.9202 33.1204C67.1272 32.3014 66.7309 31.208 66.7314 29.8401C66.7314 28.526 67.1409 27.4461 67.9601 26.6005C68.7792 25.7549 69.8316 25.332 71.1174 25.332C72.4615 25.332 73.5104 25.7179 74.2642 26.4896C75.0181 27.2613 75.3939 28.3428 75.3915 29.7341L75.388 30.097ZM73.4062 28.8061C73.3302 28.2052 73.1013 27.747 72.7195 27.4316C72.3377 27.1162 71.8151 26.9576 71.1517 26.9557C70.5237 26.9557 70.0188 27.109 69.637 27.4155C69.2552 27.722 68.988 28.1846 68.8356 28.8033L73.4062 28.8061Z" fill="#666666"/>
<path d="M78.2838 26.9557C78.4894 26.4016 78.761 25.9919 79.0985 25.7265C79.436 25.4612 79.8542 25.3288 80.353 25.3292C80.6217 25.329 80.8894 25.3615 81.1502 25.4261C81.4157 25.4924 81.6736 25.5865 81.9195 25.7069L81.2328 27.3334C81.0709 27.2172 80.8908 27.1292 80.6999 27.0729C80.4922 27.0145 80.2772 26.9861 80.0614 26.9887C79.4269 26.9887 78.9719 27.2437 78.6964 27.7538C78.4209 28.2639 78.2833 29.121 78.2838 30.3252V34.0028H76.3726V25.6058H78.2838V26.9557Z" fill="#666666"/>
<path d="M83.9055 34.0042V21.0591H91.1006V22.845H86.0013V26.074H91.1006V27.9216H86.0013V34.0035L83.9055 34.0042Z" fill="#666666"/>
<path d="M94.0041 26.9557C94.2097 26.4016 94.4813 25.9919 94.8188 25.7265C95.1563 25.4612 95.5745 25.3288 96.0734 25.3292C96.342 25.329 96.6097 25.3616 96.8706 25.4261C97.1361 25.4924 97.3939 25.5865 97.6398 25.7069L96.9531 27.3334C96.7912 27.2172 96.6111 27.1292 96.4202 27.0729C96.2125 27.0145 95.9975 26.9861 95.7817 26.9887C95.1477 26.9887 94.6927 27.2437 94.4167 27.7538C94.1407 28.2639 94.0032 29.121 94.0041 30.3252V34.0028H92.0964V25.6058H94.0076L94.0041 26.9557Z" fill="#666666"/>
<path d="M106.6 30.097H99.9244C99.971 30.8804 100.204 31.4918 100.624 31.9313C101.043 32.3707 101.598 32.5902 102.288 32.5897C102.905 32.5897 103.418 32.4601 103.826 32.2008C104.235 31.9416 104.594 31.5232 104.901 30.9457L106.51 31.847C106.04 32.6894 105.459 33.3172 104.766 33.7304C104.074 34.1436 103.26 34.3498 102.326 34.3489C100.988 34.3489 99.9225 33.9394 99.13 33.1204C98.3374 32.3014 97.9412 31.208 97.9412 29.8401C97.9412 28.526 98.3507 27.4461 99.1698 26.6005C99.989 25.7549 101.041 25.332 102.326 25.332C103.671 25.332 104.72 25.7179 105.473 26.4896C106.226 27.2613 106.602 28.3428 106.601 29.7341L106.6 30.097ZM104.619 28.8061C104.543 28.2052 104.314 27.747 103.931 27.4316C103.549 27.1162 103.027 26.9576 102.364 26.9557C101.735 26.9557 101.23 27.109 100.85 27.4155C100.469 27.722 100.202 28.1846 100.048 28.8033L104.619 28.8061Z" fill="#666666"/>
<path d="M108.062 34.0042V27.3067H106.6V25.6219H108.062V22.4497H109.973V25.6219H111.435V27.3067H109.973V34.0077L108.062 34.0042Z" fill="#666666"/>
<path d="M119.999 30.097H113.323C113.37 30.8804 113.603 31.4918 114.022 31.9313C114.442 32.3707 114.997 32.5902 115.687 32.5897C116.303 32.5897 116.816 32.4601 117.225 32.2008C117.634 31.9416 117.992 31.5232 118.3 30.9457L119.908 31.847C119.438 32.6894 118.857 33.3172 118.164 33.7304C117.471 34.1436 116.658 34.3498 115.725 34.3489C114.387 34.3489 113.321 33.9394 112.529 33.1204C111.736 32.3014 111.34 31.208 111.34 29.8401C111.34 28.526 111.749 27.4461 112.568 26.6005C113.388 25.7549 114.44 25.332 115.726 25.332C117.071 25.332 118.12 25.7179 118.873 26.4896C119.626 27.2613 120.001 28.3428 119.999 29.7341V30.097ZM118.017 28.8061C117.94 28.2052 117.711 27.747 117.33 27.4316C116.949 27.1162 116.426 26.9576 115.762 26.9557C115.134 26.9557 114.629 27.109 114.247 27.4155C113.866 27.722 113.599 28.1846 113.446 28.8033L118.017 28.8061Z" fill="#666666"/>
</g>
<defs>
<clipPath id="clip0_401_1787">
<rect width="120" height="50" fill="white"/>
</clipPath>
</defs>
</svg>
